<svg width="100" height="100" viewBox="0 0 100 100" fill="none" xmlns="http://www.w3.org/2000/svg">
<path d="M37.5 91.6667H62.5C83.3334 91.6667 91.6667 83.3333 91.6667 62.5V37.5C91.6667 16.6667 83.3334 8.33333 62.5 8.33333H37.5C16.6667 8.33333 8.33337 16.6667 8.33337 37.5V62.5C8.33337 83.3333 16.6667 91.6667 37.5 91.6667Z" stroke="white" stroke-width="3" stroke-linecap="round" stroke-linejoin="round"/>
<path d="M70.8333 10.1667V51.75C70.8333 59.9583 64.9583 63.1667 57.75 58.8333L52.25 55.5417C51 54.7917 49 54.7917 47.75 55.5417L42.25 58.8333C35.0416 63.125 29.1666 59.9583 29.1666 51.75V10.1667" stroke="white" stroke-width="3" stroke-linecap="round" stroke-linejoin="round"/>
<path d="M37.5 91.6667H62.5C83.3334 91.6667 91.6667 83.3333 91.6667 62.5V37.5C91.6667 16.6667 83.3334 8.33333 62.5 8.33333H37.5C16.6667 8.33333 8.33337 16.6667 8.33337 37.5V62.5C8.33337 83.3333 16.6667 91.6667 37.5 91.6667Z" stroke="white" stroke-width="3" stroke-linecap="round" stroke-linejoin="round"/>
<path d="M70.8333 10.1667V51.75C70.8333 59.9583 64.9583 63.1667 57.75 58.8333L52.25 55.5417C51 54.7917 49 54.7917 47.75 55.5417L42.25 58.8333C35.0416 63.125 29.1666 59.9583 29.1666 51.75V10.1667" stroke="white" stroke-width="3" stroke-linecap="round" stroke-linejoin="round"/>
</svg>
